<?xml version="1.0" encoding="utf-8"?>
<!-- Generator: Adobe Illustrator 19.2.1, SVG Export Plug-In . SVG Version: 6.00 Build 0)  -->
<svg version="1.1" id="Layer_1" xmlns="http://www.w3.org/2000/svg" xmlns:xlink="http://www.w3.org/1999/xlink" x="0px" y="0px"
	 viewBox="0 0 1182.3 424.3" style="enable-background:new 0 0 1182.3 424.3;" xml:space="preserve">
<g id="Sign">
	<polygon style="fill:#FFC127;" points="353.6,0 247.5,106.1 247.5,176.8 318.2,176.8 424.3,70.7 424.3,0 	"/>
	<polygon style="fill:#56BF56;" points="282.8,212.1 212.1,282.8 353.6,424.3 424.3,424.3 424.3,353.6 	"/>
	<path style="fill:#EA2F4A;" d="M85.4,14.6C66.1-4.6,34.9-4.9,15.4,14l0,0v0c-0.2,0.2-0.5,0.4-0.7,0.7c-19.5,19.5-19.5,51.2,0,70.7
		c0.2,0.2,0.5,0.4,0.7,0.7v0l126.1,126.1l70.7-70.7L86,15.3l0,0C85.8,15.1,85.6,14.9,85.4,14.6z"/>
	
		<rect x="6.1" y="268.2" transform="matrix(0.7071 -0.7071 0.7071 0.7071 -193.9333 168.2006)" style="fill:#55D5F2;" width="200" height="100"/>
	<path d="M282.8,212.1c0-39.1-31.7-70.7-70.7-70.7s-70.7,31.7-70.7,70.7l70.7,70.7L282.8,212.1z M187.1,212.1c0-13.8,11.2-25,25-25
		c13.8,0,25,11.2,25,25h0c0,6.4-2.4,12.8-7.3,17.7c-9.8,9.8-25.6,9.8-35.4,0C189.6,224.9,187.1,218.5,187.1,212.1z"/>
</g>
<g id="PUNKT_KULTURY">
	<path style="display:none;" d="M528.9,58.1V100h-4.6V0h34c10.9,0,19.4,2.6,25.6,7.8c6.2,5.2,9.3,12.4,9.3,21.6c0,9.1-3,16.1-9,21.2
		c-6,5-14.7,7.5-26.1,7.5H528.9z M528.9,53.5h29.3c9.5,0,16.9-2.1,22.2-6.3s8-10.1,8-17.7c0-7.7-2.6-13.8-7.9-18.2
		c-5.2-4.4-12.5-6.6-21.9-6.7h-29.8V53.5z"/>
	<path style="display:none;" d="M687.8,0v68c-0.1,10.5-3.4,18.7-10.1,24.6c-6.7,5.9-15.6,8.8-26.7,8.8c-11.3,0-20.2-3-26.9-8.9
		c-6.6-5.9-10-14.2-10-24.8V0h4.5v67.6c0,8.5,2.7,15.3,8,20.4c5.3,5.2,12.6,8,21.7,8.5l2.6,0.1c9.6,0,17.3-2.6,23.2-7.7
		c5.9-5.1,8.9-12.1,9-20.8V0H687.8z"/>
	<path style="display:none;" d="M793.6,100h-4.6L720.4,7.7V100h-4.6V0h4.6l68.5,92V0h4.6V100z"/>
	<path style="display:none;" d="M844.1,47.9l-16.7,14.9V100h-4.6V0h4.6v57.2l17.2-16L888.3,0h6.5l-47,44.5l51.3,55.4h-6.2
		L844.1,47.9z"/>
	<path style="display:none;" d="M990.2,4.6h-38.8V100h-4.6V4.6h-38.9V0h82.3V4.6z"/>
	<path d="M563.1,203.2l-9.4,9.4l-0.3-1.1v25.7h-29v-100h29v39.6l26.6-39.6h36.5l-33.6,44.5l33.7,55.4h-34.1L563.1,203.2z"/>
	<path d="M708.2,137.2v64c0,11.8-3.8,21-11.3,27.5c-7.6,6.6-18.2,9.8-31.8,9.8c-13.4,0-24-3.3-31.7-9.9
		c-7.7-6.6-11.6-15.5-11.7-26.9v-64.6h29.1v64c0,5.4,1.2,9.2,3.6,11.5c2.4,2.3,6,3.5,10.7,3.5c4.9,0,8.4-1.2,10.7-3.5
		c2.3-2.3,3.4-6.2,3.4-11.5v-64H708.2z"/>
	<path d="M751.5,214.8h43.4v22.3h-72.4v-100h29V214.8z"/>
	<path d="M882.9,159.5h-31.8v77.7H822v-77.7h-30.9v-22.3h91.8V159.5z"/>
	<path d="M979.2,137.2v64c0,11.8-3.8,21-11.3,27.5c-7.6,6.6-18.2,9.8-31.8,9.8c-13.4,0-24-3.3-31.7-9.9
		c-7.7-6.6-11.6-15.5-11.7-26.9v-64.6h29.1v64c0,5.4,1.2,9.2,3.6,11.5c2.4,2.3,6,3.5,10.7,3.5c4.9,0,8.4-1.2,10.7-3.5
		c2.3-2.3,3.4-6.2,3.4-11.5v-64H979.2z"/>
	<path d="M1034,204h-11.4v33.1h-29v-100h44.2c13,0,23.1,2.6,30.5,7.9c7.3,5.2,11,12.5,11,21.9c0,7.3-1.4,13.2-4.2,17.8
		c-2.8,4.6-7.5,8.5-14.1,11.6l21.7,39.6v1.1h-31.2L1034,204z M1022.6,181.7h15.2c8.4,0,12.5-3.8,12.5-11.3c0-7.3-4.5-10.9-13.4-10.9
		h-14.3V181.7z"/>
	<path d="M1133.3,176.8l17.8-39.6h31.2l-34.7,64.9v35.1h-29V201l-34-63.8h31.1L1133.3,176.8z"/>
</g>
<g>
	<path d="M534.5,60.2V100h-10.2V0h37c11.4,0,20.3,2.7,26.9,8.2c6.5,5.5,9.8,12.9,9.8,22.2c0,9.4-3.2,16.7-9.5,21.9
		c-6.3,5.2-15.3,7.8-26.8,7.9H534.5z M534.5,51.5h26.8c8.4,0,14.9-1.8,19.4-5.4c4.5-3.6,6.8-8.7,6.8-15.4c0-6.7-2.3-12-7-15.9
		c-4.6-3.9-11-5.8-19.2-5.8h-26.9V51.5z"/>
	<path d="M690.2,0v67.4c0,10.4-3.4,18.7-10.3,24.8s-16.1,9.1-27.8,9.1c-11.6,0-20.8-3-27.6-8.9c-6.8-5.9-10.3-14-10.5-24.3V0h10.1
		v67.4c0,7.9,2.5,14.1,7.5,18.5c5,4.5,11.8,6.7,20.5,6.7c8.6,0,15.4-2.2,20.3-6.6s7.5-10.5,7.6-18.4V0H690.2z"/>
	<path d="M794.3,100h-10.2l-60.2-83.8V100h-10.2V0h10.2l60.2,83.8V0h10.2V100z"/>
	<path d="M843.7,51.6l-14.7,13.6V100h-10.2V0h10.2v52.8l14.2-14.5L882.2,0h13l-44,44.5l47.6,55.4H886L843.7,51.6z"/>
	<path d="M990.7,8.9h-36.6v91h-10.2v-91h-36.5V0h83.2V8.9z"/>
</g>
</svg>
