<?xml version="1.0" encoding="utf-8"?>
<!-- Generator: Adobe Illustrator 19.2.1, SVG Export Plug-In . SVG Version: 6.00 Build 0)  -->
<svg version="1.1" id="Layer_1" xmlns="http://www.w3.org/2000/svg" xmlns:xlink="http://www.w3.org/1999/xlink" x="0px" y="0px"
	 viewBox="0 0 487.9 128.9" style="enable-background:new 0 0 487.9 128.9;" xml:space="preserve">
<path d="M475.9,118.3h-13.5V97.1L450,68.2h14.1l2.4,7.4c0.5,1.4,0.9,2.8,1.3,4.2c0.4,1.3,0.7,2.6,1,3.9c0.5-1.8,0.9-3.4,1.3-4.7
	c0.4-1.3,0.7-2.4,1-3.2l2.5-7.5h14l-11.6,28.8V118.3z"/>
<path d="M438,118.3h-14.6l-6.7-17.8c-0.1-0.3-0.2-0.7-0.3-1.2c-0.2-0.5-0.4-1.1-0.6-1.8l0.1,3.3v17.5h-13.5v-50h13.8
	c6.1,0,10.7,1.2,13.7,3.6c3.8,3.1,5.8,7.4,5.8,13.1c0,6.1-2.6,10.2-7.7,12.5L438,118.3z M415.9,90.7h0.9c1.6,0,2.9-0.6,3.9-1.8
	c1-1.2,1.6-2.7,1.6-4.5c0-3.7-2-5.6-5.9-5.6h-0.5V90.7z"/>
<path d="M369,68.2h13.5V103c0,2.9-0.5,5.3-1.4,7.1c-0.9,1.9-2.4,3.6-4.5,5.1c-2.9,2-6.3,3.1-10.4,3.1c-4.6,0-8.5-1.1-11.6-3.4
	c-4-2.9-6-7.5-6-13.8V68.2H362v32.1c0,2.2,0.3,3.7,0.8,4.6c0.5,0.9,1.4,1.4,2.7,1.4c1.3,0,2.2-0.4,2.7-1.3c0.5-0.9,0.7-2.4,0.7-4.7
	V68.2z"/>
<path d="M324.3,118.3h-13.5V80.2h-7.5v-12h28.7v12h-7.7V118.3z"/>
<path d="M291.3,118.3h-23.7v-50h13.5v38.1h10.1V118.3z"/>
<path d="M234.2,68.2h13.5V103c0,2.9-0.5,5.3-1.4,7.1c-0.9,1.9-2.4,3.6-4.5,5.1c-2.9,2-6.3,3.1-10.4,3.1c-4.6,0-8.5-1.1-11.6-3.4
	c-4-2.9-6-7.5-6-13.8V68.2h13.5v32.1c0,2.2,0.3,3.7,0.8,4.6c0.5,0.9,1.4,1.4,2.7,1.4c1.3,0,2.2-0.4,2.7-1.3c0.5-0.9,0.7-2.4,0.7-4.7
	V68.2z"/>
<path d="M196.9,118.3h-14.6l-9-23.1l0.4,23.1h-13.5v-50h13.5l-0.4,21.5l8-21.5h14.3l-10.8,24.1L196.9,118.3z"/>
<path d="M454.8,7.6h33.1v3.5h-14.4v39.5h-4.3V11.1h-14.4V7.6z"/>
<path d="M385.3,50.6v-43h4.3v22.3L413,7.6h4.9l-18,17.1L421,50.6h-5.2l-19-23.4l-7.1,6.8v16.6H385.3z"/>
<path d="M312.2,13.1H312v37.5h-4.3v-43h4.9l26.3,37.6h0.1V7.6h4.3v43h-5L312.2,13.1z"/>
<path d="M230.7,7.6h4.3v25.6c0,5.3,1.1,9.2,3.2,11.5c2.1,2.4,5.5,3.5,10.2,3.5c2.4,0,4.5-0.3,6.2-0.9c1.7-0.6,3.1-1.6,4.1-2.8
	c1.1-1.3,1.8-2.8,2.3-4.7c0.5-1.9,0.7-4.1,0.7-6.6V7.6h4.3v26.8c0,5.6-1.5,9.9-4.4,12.9c-2.9,3-7.3,4.5-13.2,4.5
	c-5.9,0-10.4-1.5-13.3-4.5c-2.9-3-4.4-7.3-4.4-12.8V7.6z"/>
<path d="M160.2,50.6v-43h16.6c2.9,0,5.4,0.3,7.3,1c1.9,0.6,3.4,1.5,4.6,2.6c1.1,1.1,1.9,2.4,2.3,3.9c0.4,1.5,0.7,3,0.7,4.6
	c0,2.4-0.5,4.4-1.5,5.9c-1,1.6-2.4,2.8-4,3.7c-1.6,0.9-3.5,1.5-5.6,1.9c-2.1,0.4-4.2,0.5-6.3,0.5h-9.7v19H160.2z M174.4,28.2
	c2,0,3.8-0.1,5.4-0.4c1.6-0.2,3-0.7,4.1-1.3c1.1-0.7,2-1.6,2.6-2.7c0.6-1.1,0.9-2.6,0.9-4.5c0-2.7-0.9-4.8-2.8-6.2
	c-1.9-1.4-4.9-2.1-8.9-2.1h-11.1v17.1H174.4z"/>
<path d="M144.7,124.5c-3.4-0.8-6.8-1.6-10.5-2.4c-2.5-0.4-5-0.8-7.5-1.2c-5.4-0.8-10.8-1.5-16.2-2.2c-10.5-1.2-21.1-2-31.7-1.9V97.5
	l11.5-2.3l1-0.2L91,94L87.9,79l-0.2-1l-1,0.2l-8.1,1.6v-4.4h20.6h0.5l0.3-0.3l6-7.2l0.5-0.7l-0.6-0.6l-6-6.6l-0.3-0.3h-0.4H78.7
	v-3.9H90h1v-1V38.5v-1h-1H78.7v-7.1L91.4,28l0.4-0.1l0.2-0.3l6.6-9.9l0.6-0.8l-0.9-0.5l-9.7-6.1L88.4,10L88,10.1l-9.3,1.8V1V0h-1
	H66.7h-1v1v13.4l-6.9,1.2l-1.9,0.3c-0.7,0.1-1.5,0.3-2.2,0.8c-0.7,0.5-1.3,1.4-1.4,2.2c-0.2,0.9-0.1,1.6,0.2,2.5l0-0.2l1.8,9.3
	l0-0.1c0.1,0.7,0.3,1.3,0.6,1.9c0.3,0.6,0.8,1.1,1.5,1.4c1.3,0.7,2.7,0.4,3.7,0.1c1.6-0.3,3.2-0.7,4.8-0.9v4.6H38.1h-0.4l-0.3,0.3
	l-8.4,8.5L28.3,47l0.7,0.7l8.4,7.8l0.3,0.3h0.4h27.6v3.9H51.2h-1v1v13.8v1h1h14.5v7l-13.3,2.7L52,85.3l-0.2,0.3l-6.6,9.5L44.5,96
	l0.9,0.5l9.7,5.5l0.3,0.2l0.4-0.1l9.9-2v16.7c-5.1-0.1-10.2,0.1-15.3,0.5c-5.4,0.4-10.8,0.9-16.2,1.5c-5.4,0.6-10.8,1.3-16.1,2.1
	c-4.2,0.6-8.4,1.3-12.6,2c-1.9,0.4-3.7,0.8-5.4,1.3l0,1.7l0,3l2.9-0.6h0c5.2-1.2,10.5-2.3,15.8-3.3c5.3-1,10.6-2,15.9-2.8
	c5.3-0.8,10.6-1.6,16-2.2c5.3-0.6,10.7-1.1,16.1-1.2l1,0l0-1V99v-1.2L66.5,98l-10.7,2.2l-8.4-4.8l5.8-8.3l13.7-2.8l0.8-0.2v-0.8
	v-8.8v-1h-1H52.1V61.7h14.5h1v-1v-5.9v-1h-1H38.5L31.1,47l7.4-7.5h28.1h1v-1v-6.7v-1.1l-1.1,0.2c-2,0.3-4.1,0.7-6.1,1.2
	c-1,0.3-1.8,0.3-2.3,0c-0.5-0.2-0.9-1-1-1.7l0-0.1l0,0l-1.8-9.3l0-0.1l0-0.1c-0.1-0.4-0.2-1-0.1-1.4c0.1-0.4,0.3-0.7,0.6-1
	c0.4-0.3,0.8-0.4,1.4-0.5l1.9-0.3l7.7-1.3l0.8-0.1v-0.8V2h9.1v11.1v1.2l1.2-0.2L88,12.1l8.5,5.4l-5.8,8.7l-13.1,2.5l-0.8,0.2v0.8
	v8.8v1h1h11.3v14.4H77.7h-1v1v5.9v1h1h21.2l5.2,5.7l-5.2,6.2H77.7h-1v1v6.5v1.2l1.2-0.2l8.3-1.7l2.7,13.1l-11.3,2.3l-0.8,0.2v0.8
	v21.1l0,0l0,1l1,0c10.8,0.2,21.6,1.5,32.3,3.2c5.4,0.8,10.7,1.8,16,2.8c5.3,1,10.6,2.1,15.9,3.4l0,0l2.8,0.6l0-2.8L144.7,124.5z"/>
</svg>
